<svg width="732" height="321" viewBox="0 0 732 321" fill="none" xmlns="http://www.w3.org/2000/svg">
<path d="M181.947 249.69V287H131.095V249.69H10.1846V209.203L118.935 97.1357H181.947V209.203H225.06V249.69H181.947ZM131.095 141.769L65.7344 209.203H131.095V141.769ZM473.929 192.206C473.929 207.314 471.027 221.04 465.223 233.385C459.512 245.637 451.635 256.139 441.594 264.891C431.552 273.55 419.715 280.275 406.081 285.065C392.446 289.764 377.799 292.113 362.138 292.113C351.636 292.113 341.595 291.053 332.014 288.935C322.433 286.816 313.451 283.73 305.068 279.676C296.777 275.623 289.223 270.694 282.406 264.891C275.681 258.995 269.924 252.362 265.133 244.992C260.343 237.622 256.612 229.516 253.94 220.672C251.361 211.828 250.071 202.34 250.071 192.206C250.071 182.165 251.361 172.722 253.94 163.878C256.612 154.943 260.343 146.79 265.133 139.42C269.924 132.05 275.681 125.463 282.406 119.66C289.223 113.764 296.777 108.789 305.068 104.736C313.451 100.682 322.433 97.5964 332.014 95.4775C341.595 93.3587 351.636 92.2993 362.138 92.2993C377.799 92.2993 392.446 94.6945 406.081 99.4849C419.715 104.183 431.552 110.908 441.594 119.66C451.635 128.319 459.512 138.821 465.223 151.166C471.027 163.418 473.929 177.098 473.929 192.206ZM422.663 192.206C422.663 182.625 421.004 174.15 417.688 166.78C414.372 159.41 409.904 153.192 404.284 148.125C398.757 143.059 392.354 139.236 385.077 136.656C377.799 134.077 370.153 132.787 362.138 132.787C354.124 132.787 346.431 134.077 339.062 136.656C331.692 139.236 325.197 143.059 319.578 148.125C314.05 153.192 309.582 159.41 306.174 166.78C302.857 174.15 301.199 182.625 301.199 192.206C301.199 201.787 302.857 210.262 306.174 217.632C309.582 225.002 314.05 231.22 319.578 236.287C325.197 241.261 331.692 245.084 339.062 247.756C346.431 250.335 354.124 251.625 362.138 251.625C370.153 251.625 377.799 250.335 385.077 247.756C392.354 245.084 398.757 241.261 404.284 236.287C409.904 231.22 414.372 225.002 417.688 217.632C421.004 210.262 422.663 201.787 422.663 192.206ZM669.182 249.69V287H618.331V249.69H497.42V209.203L606.17 97.1357H669.182V209.203H712.295V249.69H669.182ZM618.331 141.769L552.97 209.203H618.331V141.769Z" fill="#2E2E2E"/>
<path d="M189.947 239.69V277H139.095V239.69H18.1846V199.203L126.935 87.1357H189.947V199.203H233.06V239.69H189.947ZM139.095 131.769L73.7344 199.203H139.095V131.769ZM481.929 182.206C481.929 197.314 479.027 211.04 473.223 223.385C467.512 235.637 459.635 246.139 449.594 254.891C439.552 263.55 427.715 270.275 414.081 275.065C400.446 279.764 385.799 282.113 370.138 282.113C359.636 282.113 349.595 281.053 340.014 278.935C330.433 276.816 321.451 273.73 313.068 269.676C304.777 265.623 297.223 260.694 290.406 254.891C283.681 248.995 277.924 242.362 273.133 234.992C268.343 227.622 264.612 219.516 261.94 210.672C259.361 201.828 258.071 192.34 258.071 182.206C258.071 172.165 259.361 162.722 261.94 153.878C264.612 144.943 268.343 136.79 273.133 129.42C277.924 122.05 283.681 115.463 290.406 109.66C297.223 103.764 304.777 98.7892 313.068 94.7358C321.451 90.6825 330.433 87.5964 340.014 85.4775C349.595 83.3587 359.636 82.2993 370.138 82.2993C385.799 82.2993 400.446 84.6945 414.081 89.4849C427.715 94.1831 439.552 100.908 449.594 109.66C459.635 118.319 467.512 128.821 473.223 141.166C479.027 153.418 481.929 167.098 481.929 182.206ZM430.663 182.206C430.663 172.625 429.004 164.15 425.688 156.78C422.372 149.41 417.904 143.192 412.284 138.125C406.757 133.059 400.354 129.236 393.077 126.656C385.799 124.077 378.153 122.787 370.138 122.787C362.124 122.787 354.431 124.077 347.062 126.656C339.692 129.236 333.197 133.059 327.578 138.125C322.05 143.192 317.582 149.41 314.174 156.78C310.857 164.15 309.199 172.625 309.199 182.206C309.199 191.787 310.857 200.262 314.174 207.632C317.582 215.002 322.05 221.22 327.578 226.287C333.197 231.261 339.692 235.084 347.062 237.756C354.431 240.335 362.124 241.625 370.138 241.625C378.153 241.625 385.799 240.335 393.077 237.756C400.354 235.084 406.757 231.261 412.284 226.287C417.904 221.22 422.372 215.002 425.688 207.632C429.004 200.262 430.663 191.787 430.663 182.206ZM677.182 239.69V277H626.331V239.69H505.42V199.203L614.17 87.1357H677.182V199.203H720.295V239.69H677.182ZM626.331 131.769L560.97 199.203H626.331V131.769Z" fill="#FFF969"/>
<path d="M189.947 239.69V235.69H185.947V239.69H189.947ZM189.947 277V281H193.947V277H189.947ZM139.095 277H135.095V281H139.095V277ZM139.095 239.69H143.095V235.69H139.095V239.69ZM18.1846 239.69H14.1846V243.69H18.1846V239.69ZM18.1846 199.203L15.314 196.417L14.1846 197.581V199.203H18.1846ZM126.935 87.1357V83.1357H125.243L124.064 84.3501L126.935 87.1357ZM189.947 87.1357H193.947V83.1357H189.947V87.1357ZM189.947 199.203H185.947V203.203H189.947V199.203ZM233.06 199.203H237.06V195.203H233.06V199.203ZM233.06 239.69V243.69H237.06V239.69H233.06ZM139.095 131.769H143.095V121.895L136.223 128.985L139.095 131.769ZM73.7344 199.203L70.8621 196.419L64.2867 203.203H73.7344V199.203ZM139.095 199.203V203.203H143.095V199.203H139.095ZM185.947 239.69V277H193.947V239.69H185.947ZM189.947 273H139.095V281H189.947V273ZM143.095 277V239.69H135.095V277H143.095ZM139.095 235.69H18.1846V243.69H139.095V235.69ZM22.1846 239.69V199.203H14.1846V239.69H22.1846ZM21.0552 201.988L129.806 89.9214L124.064 84.3501L15.314 196.417L21.0552 201.988ZM126.935 91.1357H189.947V83.1357H126.935V91.1357ZM185.947 87.1357V199.203H193.947V87.1357H185.947ZM189.947 203.203H233.06V195.203H189.947V203.203ZM229.06 199.203V239.69H237.06V199.203H229.06ZM233.06 235.69H189.947V243.69H233.06V235.69ZM136.223 128.985L70.8621 196.419L76.6066 201.987L141.967 134.553L136.223 128.985ZM73.7344 203.203H139.095V195.203H73.7344V203.203ZM143.095 199.203V131.769H135.095V199.203H143.095ZM473.223 223.385L469.603 221.683L469.598 221.695L473.223 223.385ZM449.594 254.891L452.206 257.92L452.214 257.913L452.222 257.906L449.594 254.891ZM414.081 275.065L415.384 278.847L415.395 278.843L415.407 278.839L414.081 275.065ZM313.068 269.676L311.312 273.27L311.319 273.274L311.327 273.277L313.068 269.676ZM290.406 254.891L287.769 257.898L287.791 257.918L287.813 257.936L290.406 254.891ZM261.94 210.672L258.1 211.792L258.106 211.81L258.111 211.829L261.94 210.672ZM261.94 153.878L258.108 152.733L258.104 152.746L258.1 152.758L261.94 153.878ZM273.133 129.42L269.78 127.24L273.133 129.42ZM290.406 109.66L293.02 112.688L293.023 112.685L290.406 109.66ZM313.068 94.7358L311.327 91.1347L311.319 91.1385L311.312 91.1423L313.068 94.7358ZM414.081 89.4849L412.755 93.2587L412.766 93.2627L412.777 93.2666L414.081 89.4849ZM449.594 109.66L446.966 112.675L446.974 112.682L446.981 112.689L449.594 109.66ZM473.223 141.166L469.593 142.845L469.6 142.862L469.608 142.878L473.223 141.166ZM412.284 138.125L409.581 141.074L409.593 141.085L409.606 141.096L412.284 138.125ZM327.578 138.125L324.899 135.155L324.887 135.166L324.875 135.177L327.578 138.125ZM314.174 156.78L310.543 155.101L310.535 155.12L310.526 155.139L314.174 156.78ZM314.174 207.632L310.526 209.273L310.535 209.292L310.543 209.311L314.174 207.632ZM327.578 226.287L324.875 229.235L324.9 229.259L324.926 229.282L327.578 226.287ZM347.062 237.756L345.698 241.516L345.719 241.524L345.74 241.531L347.062 237.756ZM393.077 237.756L394.413 241.526L394.434 241.519L394.455 241.511L393.077 237.756ZM412.284 226.287L414.96 229.26L414.963 229.257L412.284 226.287ZM477.929 182.206C477.929 196.79 475.131 209.926 469.603 221.683L476.843 225.087C482.923 212.155 485.929 197.839 485.929 182.206H477.929ZM469.598 221.695C464.119 233.448 456.579 243.496 446.966 251.875L452.222 257.906C462.691 248.782 470.904 237.826 476.849 225.075L469.598 221.695ZM446.981 251.861C437.351 260.166 425.96 266.652 412.755 271.292L415.407 278.839C429.47 273.898 441.754 266.934 452.206 257.92L446.981 251.861ZM412.777 271.284C399.597 275.826 385.394 278.113 370.138 278.113V286.113C386.204 286.113 401.296 283.702 415.384 278.847L412.777 271.284ZM370.138 278.113C359.906 278.113 350.156 277.081 340.878 275.029L339.15 282.84C349.034 285.026 359.366 286.113 370.138 286.113V278.113ZM340.878 275.029C331.584 272.974 322.898 269.986 314.81 266.075L311.327 273.277C320.005 277.473 329.283 280.658 339.15 282.84L340.878 275.029ZM314.825 266.083C306.825 262.172 299.554 257.425 292.999 251.845L287.813 257.936C294.893 263.964 302.729 269.074 311.312 273.27L314.825 266.083ZM293.043 251.883C286.589 246.225 281.074 239.869 276.487 232.812L269.78 237.172C274.773 244.855 280.773 251.765 287.769 257.898L293.043 251.883ZM276.487 232.812C271.913 225.775 268.337 218.016 265.77 209.515L258.111 211.829C260.887 221.016 264.773 229.47 269.78 237.172L276.487 232.812ZM265.78 209.552C263.317 201.106 262.071 191.998 262.071 182.206H254.071C254.071 192.681 255.405 202.55 258.1 211.792L265.78 209.552ZM262.071 182.206C262.071 172.51 263.316 163.447 265.78 154.998L258.1 152.758C255.406 161.997 254.071 171.82 254.071 182.206H262.071ZM265.773 155.024C268.342 146.432 271.917 138.631 276.487 131.6L269.78 127.24C264.769 134.949 260.882 143.453 258.108 152.733L265.773 155.024ZM276.487 131.6C281.07 124.55 286.577 118.248 293.02 112.688L287.793 106.631C280.785 112.679 274.778 119.551 269.78 127.24L276.487 131.6ZM293.023 112.685C299.573 107.02 306.837 102.235 314.825 98.3294L311.312 91.1423C302.718 95.3435 294.874 100.507 287.79 106.634L293.023 112.685ZM314.81 98.337C322.898 94.4259 331.584 91.4385 340.878 89.3832L339.15 81.5719C329.283 83.7542 320.005 86.939 311.327 91.1347L314.81 98.337ZM340.878 89.3832C350.156 87.3313 359.906 86.2993 370.138 86.2993V78.2993C359.366 78.2993 349.034 79.3861 339.15 81.5719L340.878 89.3832ZM370.138 86.2993C385.385 86.2993 399.581 88.6301 412.755 93.2587L415.407 85.711C401.312 80.7589 386.213 78.2993 370.138 78.2993V86.2993ZM412.777 93.2666C425.965 97.8111 437.344 104.289 446.966 112.675L452.222 106.644C441.761 97.5272 429.464 90.5551 415.384 85.7031L412.777 93.2666ZM446.981 112.689C456.58 120.966 464.114 131.004 469.593 142.845L476.853 139.486C470.909 126.638 462.69 115.672 452.206 106.631L446.981 112.689ZM469.608 142.878C475.131 154.536 477.929 167.622 477.929 182.206H485.929C485.929 166.574 482.923 152.299 476.838 139.453L469.608 142.878ZM434.663 182.206C434.663 172.163 432.923 163.111 429.336 155.139L422.04 158.422C425.085 165.189 426.663 173.088 426.663 182.206H434.663ZM429.336 155.139C425.808 147.299 421.021 140.617 414.963 135.155L409.606 141.096C414.786 145.767 418.936 151.522 422.04 158.422L429.336 155.139ZM414.987 135.177C409.052 129.736 402.181 125.639 394.413 122.886L391.74 130.426C398.527 132.832 404.462 136.381 409.581 141.074L414.987 135.177ZM394.413 122.886C386.69 120.149 378.591 118.787 370.138 118.787V126.787C377.715 126.787 384.908 128.005 391.74 130.426L394.413 122.886ZM370.138 118.787C361.686 118.787 353.546 120.149 345.74 122.881L348.383 130.432C355.317 128.005 362.561 126.787 370.138 126.787V118.787ZM345.74 122.881C337.885 125.63 330.926 129.721 324.899 135.155L330.256 141.096C335.468 136.397 341.498 132.841 348.383 130.432L345.74 122.881ZM324.875 135.177C318.926 140.63 314.155 147.291 310.543 155.101L317.804 158.459C321.009 151.53 325.175 145.754 330.281 141.074L324.875 135.177ZM310.526 155.139C306.938 163.111 305.199 172.163 305.199 182.206H313.199C313.199 173.088 314.776 165.189 317.822 158.422L310.526 155.139ZM305.199 182.206C305.199 192.249 306.938 201.301 310.526 209.273L317.822 205.99C314.776 199.223 313.199 191.324 313.199 182.206H305.199ZM310.543 209.311C314.155 217.121 318.926 223.782 324.875 229.235L330.281 223.338C325.175 218.658 321.009 212.882 317.804 205.953L310.543 209.311ZM324.926 229.282C330.94 234.605 337.876 238.681 345.698 241.516L348.425 233.995C341.507 231.488 335.454 227.917 330.229 223.292L324.926 229.282ZM345.74 241.531C353.546 244.263 361.686 245.625 370.138 245.625V237.625C362.561 237.625 355.317 236.407 348.383 233.98L345.74 241.531ZM370.138 245.625C378.591 245.625 386.69 244.263 394.413 241.526L391.74 233.986C384.908 236.407 377.715 237.625 370.138 237.625V245.625ZM394.455 241.511C402.19 238.671 409.038 234.59 414.96 229.26L409.608 223.313C404.476 227.933 398.518 231.497 391.698 234.001L394.455 241.511ZM414.963 229.257C421.021 223.795 425.808 217.114 429.336 209.273L422.04 205.99C418.936 212.89 414.786 218.645 409.606 223.316L414.963 229.257ZM429.336 209.273C432.923 201.301 434.663 192.249 434.663 182.206H426.663C426.663 191.324 425.085 199.223 422.04 205.99L429.336 209.273ZM677.182 239.69V235.69H673.182V239.69H677.182ZM677.182 277V281H681.182V277H677.182ZM626.331 277H622.331V281H626.331V277ZM626.331 239.69H630.331V235.69H626.331V239.69ZM505.42 239.69H501.42V243.69H505.42V239.69ZM505.42 199.203L502.549 196.417L501.42 197.581V199.203H505.42ZM614.17 87.1357V83.1357H612.478L611.3 84.3501L614.17 87.1357ZM677.182 87.1357H681.182V83.1357H677.182V87.1357ZM677.182 199.203H673.182V203.203H677.182V199.203ZM720.295 199.203H724.295V195.203H720.295V199.203ZM720.295 239.69V243.69H724.295V239.69H720.295ZM626.331 131.769H630.331V121.895L623.458 128.985L626.331 131.769ZM560.97 199.203L558.098 196.419L551.522 203.203H560.97V199.203ZM626.331 199.203V203.203H630.331V199.203H626.331ZM673.182 239.69V277H681.182V239.69H673.182ZM677.182 273H626.331V281H677.182V273ZM630.331 277V239.69H622.331V277H630.331ZM626.331 235.69H505.42V243.69H626.331V235.69ZM509.42 239.69V199.203H501.42V239.69H509.42ZM508.291 201.988L617.041 89.9214L611.3 84.3501L502.549 196.417L508.291 201.988ZM614.17 91.1357H677.182V83.1357H614.17V91.1357ZM673.182 87.1357V199.203H681.182V87.1357H673.182ZM677.182 203.203H720.295V195.203H677.182V203.203ZM716.295 199.203V239.69H724.295V199.203H716.295ZM720.295 235.69H677.182V243.69H720.295V235.69ZM623.458 128.985L558.098 196.419L563.842 201.987L629.203 134.553L623.458 128.985ZM560.97 203.203H626.331V195.203H560.97V203.203ZM630.331 199.203V131.769H622.331V199.203H630.331Z" fill="#2E2E2E"/>
</svg>
