<svg width="24" height="23" viewBox="0 0 24 23" fill="none" xmlns="http://www.w3.org/2000/svg">
<path fill-rule="evenodd" clip-rule="evenodd" d="M23.1653 11.6008C23.1653 5.69224 18.1902 0.901367 12.0543 0.901367C5.9185 0.901367 0.943359 5.69224 0.943359 11.6008C0.943359 16.941 5.00581 21.3674 10.3182 22.1708L10.3182 14.6946H7.49636V11.6008H10.3182V9.2436C10.3182 6.56253 11.9775 5.08037 14.5151 5.08037C15.7309 5.08037 17.0027 5.28958 17.0027 5.28958V7.92289H15.6009C14.2215 7.92289 13.7899 8.74732 13.7899 9.59468V11.6008H16.8712L16.3792 14.6946H13.7904L13.7904 22.1718C19.1029 21.3689 23.1653 16.9424 23.1653 11.6008V11.6008Z" fill="#2E2E2E"/>
</svg>
