<svg width="73" height="72" viewBox="0 0 73 72" fill="none" xmlns="http://www.w3.org/2000/svg">
<path d="M36.5892 7.85084L33.911 2L26.788 3.23249L26.2894 9.66417C24.1241 10.4857 22.0671 11.5655 20.1636 12.88L14.5365 9.57917L9.52185 14.6083L12.8982 20.275C10.6891 23.5261 9.18063 27.1967 8.46766 31.0558L2 32.6142V39.6975L8.52466 41.3409C8.93918 43.5452 9.62331 45.6909 10.5618 47.73L6.20256 52.7733L10.2911 58.5958L16.5594 56.2017C18.1733 57.753 19.9555 59.1214 21.8731 60.2817L21.1893 66.9542L27.8849 69.3908L31.6744 63.8517C33.2275 64.1161 34.7998 64.2535 36.3755 64.2625C37.0462 64.2772 37.7172 64.2489 38.3842 64.1775L41.6466 70L48.5559 68.1583L48.4704 61.5709C50.5378 60.5972 52.4797 59.3796 54.2543 57.9442L60.2091 60.7775L64.782 55.3517L60.9926 50.0675C62.1546 48.0728 63.0592 45.9405 63.6851 43.7208L70.0958 42.6583L70.7083 35.575L64.6111 33.4642C64.3705 31.1363 63.8394 28.8473 63.0298 26.65L67.6027 22.1875L64.027 16.0392L57.8727 17.725C56.3476 15.953 54.6056 14.3777 52.6872 13.0358L53.8554 6.80252L47.3877 3.79919L43.3276 8.70085C41.1245 8.14658 38.8617 7.86114 36.5892 7.85084ZM36.461 24.2417C38.8165 24.2417 41.1191 24.9363 43.0776 26.2376C45.0362 27.539 46.5627 29.3887 47.4641 31.5528C48.3655 33.7169 48.6013 36.0981 48.1418 38.3955C47.6823 40.6929 46.548 42.8032 44.8824 44.4595C43.2168 46.1159 41.0947 47.2438 38.7844 47.7008C36.4742 48.1577 34.0796 47.9232 31.9034 47.0268C29.7272 46.1304 27.8672 44.6125 26.5585 42.6648C25.2499 40.7172 24.5514 38.4274 24.5514 36.085C24.5514 34.5297 24.8594 32.9897 25.4579 31.5528C26.0564 30.1159 26.9337 28.8103 28.0396 27.7105C29.1455 26.6107 30.4585 25.7384 31.9034 25.1432C33.3483 24.548 34.897 24.2417 36.461 24.2417Z" fill="#F2ED72" stroke="#2E2E2E" stroke-width="3" stroke-miterlimit="10"/>
<path d="M35.9997 54.4173C46.1709 54.4173 54.4163 46.1719 54.4163 36.0007C54.4163 25.8294 46.1709 17.584 35.9997 17.584C25.8285 17.584 17.583 25.8294 17.583 36.0007C17.583 46.1719 25.8285 54.4173 35.9997 54.4173Z" stroke="#2E2E2E" stroke-width="3" stroke-miterlimit="10"/>
</svg>
