<svg width="72" height="72" viewBox="0 0 72 72" fill="none" xmlns="http://www.w3.org/2000/svg">
<path d="M36.5 18C25.7311 18 17 26.4131 17 36.7897C17 45.5942 23.292 52.9613 31.7745 55C31.6835 54.7463 31.625 54.452 31.625 54.0871V50.8757C30.8336 50.8757 29.5076 50.8757 29.1745 50.8757C27.8404 50.8757 26.6541 50.3229 26.0789 49.2958C25.4402 48.1543 25.3297 46.4084 23.747 45.3405C23.2774 44.9851 23.6349 44.5796 24.176 44.6344C25.1754 44.9068 26.0041 45.5676 26.7841 46.5478C27.5609 47.5295 27.9265 47.7519 29.3776 47.7519C30.0812 47.7519 31.1342 47.7127 32.1255 47.5624C32.6585 46.2581 33.5799 45.0571 34.706 44.4903C28.2125 43.8468 25.1136 40.7339 25.1136 36.5078C25.1136 34.6884 25.918 32.9284 27.2846 31.4456C26.8361 29.9737 26.2723 26.9721 27.4569 25.829C30.3786 25.829 32.145 27.6548 32.5691 28.148C34.0251 27.6673 35.6241 27.3948 37.3044 27.3948C38.9879 27.3948 40.5934 27.6673 42.0526 28.1511C42.4719 27.661 44.2399 25.829 47.1681 25.829C48.3576 26.9736 47.7872 29.9878 47.3339 31.4565C48.6924 32.9362 49.4919 34.6915 49.4919 36.5078C49.4919 40.7308 46.3979 43.8421 39.9141 44.4887C41.6984 45.386 43 47.9069 43 49.8062V54.0871C43 54.25 42.9626 54.3674 42.9431 54.5068C50.5416 51.9404 56 44.9882 56 36.7897C56 26.4131 47.2689 18 36.5 18Z" fill="#2E2E2E"/>
</svg>
