<svg width="72" height="72" viewBox="0 0 72 72" fill="none" xmlns="http://www.w3.org/2000/svg">
<path d="M43.9516 20.1664C46.1302 20.1726 48.2176 21.0088 49.7581 22.4922C51.2986 23.9756 52.1669 25.9858 52.1734 28.0836L52.1734 43.9164C52.1669 46.0142 51.2986 48.0244 49.7581 49.5078C48.2176 50.9912 46.1302 51.8274 43.9516 51.8336L27.5099 51.8336C25.3314 51.8274 23.2439 50.9912 21.7034 49.5078C20.163 48.0244 19.2947 46.0142 19.2882 43.9164L19.2882 28.0836C19.2947 25.9858 20.163 23.9756 21.7034 22.4922C23.2439 21.0088 25.3314 20.1726 27.5099 20.1664L43.9516 20.1664ZM43.9516 17H27.5099C21.1793 17 16 21.9875 16 28.0836L16 43.9164C16 50.0125 21.1793 55 27.5099 55L43.9516 55C50.2822 55 55.4615 50.0125 55.4615 43.9164L55.4615 28.0836C55.4615 21.9875 50.2822 17 43.9516 17Z" fill="#2E2E2E"/>
<path d="M46.4159 28.084C45.9281 28.084 45.4512 27.9447 45.0456 27.6837C44.6401 27.4228 44.3239 27.0518 44.1373 26.6179C43.9506 26.1839 43.9018 25.7064 43.9969 25.2456C44.0921 24.7849 44.327 24.3618 44.6719 24.0296C45.0168 23.6975 45.4563 23.4713 45.9347 23.3796C46.4131 23.288 46.909 23.335 47.3597 23.5148C47.8104 23.6945 48.1956 23.9989 48.4666 24.3895C48.7376 24.7801 48.8822 25.2393 48.8822 25.709C48.8829 26.0211 48.8196 26.3302 48.6959 26.6187C48.5722 26.9071 48.3906 27.1692 48.1614 27.3899C47.9322 27.6105 47.6601 27.7854 47.3605 27.9046C47.061 28.0237 46.74 28.0847 46.4159 28.084ZM35.7287 29.6668C37.0295 29.6668 38.3012 30.0382 39.3828 30.7342C40.4644 31.4301 41.3074 32.4193 41.8052 33.5766C42.303 34.7339 42.4333 36.0074 42.1795 37.236C41.9257 38.4646 41.2993 39.5931 40.3795 40.4789C39.4596 41.3647 38.2877 41.9679 37.0118 42.2123C35.736 42.4567 34.4135 42.3312 33.2117 41.8519C32.0098 41.3725 30.9826 40.5607 30.2599 39.5191C29.5372 38.4776 29.1515 37.253 29.1515 36.0004C29.1533 34.3211 29.8469 32.7112 31.0799 31.5238C32.313 30.3364 33.9849 29.6686 35.7287 29.6668ZM35.7287 26.5004C33.7775 26.5004 31.8701 27.0575 30.2478 28.1014C28.6254 29.1453 27.3609 30.629 26.6142 32.3649C25.8676 34.1008 25.6722 36.0109 26.0528 37.8537C26.4335 39.6966 27.3731 41.3893 28.7528 42.7179C30.1325 44.0465 31.8903 44.9513 33.804 45.3178C35.7177 45.6844 37.7013 45.4963 39.504 44.7772C41.3066 44.0582 42.8474 42.8406 43.9314 41.2783C45.0155 39.716 45.5941 37.8793 45.5941 36.0004C45.5941 33.4808 44.5547 31.0645 42.7045 29.2829C40.8544 27.5013 38.3451 26.5004 35.7287 26.5004Z" fill="#2E2E2E"/>
</svg>
