<svg width="394" height="52" viewBox="0 0 394 52" fill="none" xmlns="http://www.w3.org/2000/svg">
<path d="M22.8716 18.3184C22.8716 19.8792 22.6152 21.2236 22.1025 22.3516C21.6012 23.4795 20.8607 24.408 19.8808 25.1372C18.9124 25.8664 17.7218 26.4076 16.3091 26.7607C14.8963 27.1025 13.2842 27.2734 11.4726 27.2734C10.6181 27.2734 9.74087 27.2279 8.84081 27.1367C7.94074 27.057 7.07485 26.9544 6.24315 26.8291C5.41144 26.7038 4.6424 26.5728 3.93602 26.436C3.24103 26.2879 2.65998 26.1512 2.19286 26.0259V20.5229C2.67137 20.7166 3.19546 20.916 3.76512 21.1211C4.33478 21.3148 4.96711 21.4914 5.66209 21.6509C6.36847 21.8104 7.14321 21.9414 7.98631 22.0439C8.84081 22.1465 9.78075 22.1978 10.8061 22.1978C11.9113 22.1978 12.8284 22.0781 13.5576 21.8389C14.2982 21.5882 14.8906 21.2464 15.3349 20.8135C15.7793 20.3691 16.0926 19.8507 16.2749 19.2583C16.4572 18.6659 16.5483 18.0164 16.5483 17.3101V3.51855H22.8716V18.3184ZM49.9761 27V24.6929C49.1671 25.1372 48.2956 25.5303 47.3613 25.8721C46.4385 26.2139 45.4757 26.5044 44.4731 26.7437C43.4705 26.9829 42.4337 27.1595 41.3628 27.2734C40.3032 27.3988 39.2322 27.4614 38.1499 27.4614C36.8852 27.4614 35.6605 27.3418 34.4756 27.1025C33.3021 26.8633 32.2596 26.4759 31.3481 25.9404C30.4367 25.4049 29.7018 24.7043 29.1435 23.8384C28.5967 22.9725 28.3232 21.9129 28.3232 20.6597C28.3232 19.076 28.7562 17.7601 29.6221 16.7119C30.4879 15.6523 31.8096 14.7865 33.5869 14.1143C35.3642 13.4421 37.6087 12.9237 40.3203 12.5591C43.0433 12.1945 46.2619 11.9097 49.9761 11.7046V11.209C49.9761 10.8216 49.8735 10.4399 49.6684 10.064C49.4634 9.6766 49.0874 9.34049 48.5405 9.05566C48.005 8.75944 47.2645 8.52018 46.3188 8.33789C45.3846 8.1556 44.1883 8.06445 42.73 8.06445C41.5792 8.06445 40.4399 8.12712 39.312 8.25244C38.1955 8.36637 37.1131 8.52588 36.0649 8.73096C35.0281 8.93604 34.0426 9.17529 33.1084 9.44873C32.1741 9.72217 31.3253 10.007 30.562 10.3032V4.66357C31.3595 4.4585 32.2539 4.25911 33.2451 4.06543C34.2363 3.87174 35.2674 3.70654 36.3384 3.56982C37.4093 3.42171 38.4917 3.30778 39.5854 3.22803C40.6792 3.13688 41.7274 3.09131 42.73 3.09131C44.701 3.09131 46.5182 3.25651 48.1816 3.58691C49.845 3.90592 51.2749 4.40723 52.4712 5.09082C53.6789 5.77441 54.6188 6.6403 55.291 7.68848C55.9746 8.73665 56.3164 9.98421 56.3164 11.4312V27H49.9761ZM49.9761 16.2847C47.5379 16.3758 45.4643 16.5068 43.7554 16.6777C42.0578 16.8486 40.645 17.048 39.5171 17.2759C38.3891 17.5037 37.5005 17.7487 36.8511 18.0107C36.213 18.2728 35.7345 18.5405 35.4155 18.814C35.0965 19.0874 34.8971 19.3608 34.8174 19.6343C34.749 19.9077 34.7148 20.1584 34.7148 20.3862C34.7148 20.6597 34.7889 20.9274 34.937 21.1895C35.0851 21.4401 35.3415 21.6623 35.706 21.856C36.082 22.0496 36.5776 22.2035 37.1929 22.3174C37.8081 22.4313 38.5828 22.4883 39.5171 22.4883C40.5539 22.4883 41.5679 22.4085 42.5591 22.249C43.5503 22.0895 44.4902 21.873 45.3789 21.5996C46.2676 21.3148 47.0993 20.9844 47.874 20.6084C48.6601 20.221 49.3608 19.8109 49.9761 19.3779V16.2847ZM85.1982 10.1323C84.7539 9.91585 84.1671 9.6709 83.438 9.39746C82.7088 9.12402 81.8828 8.86768 80.9599 8.62842C80.0371 8.37777 79.0345 8.17269 77.9521 8.01318C76.8698 7.84229 75.7589 7.75684 74.6196 7.75684C73.7082 7.75684 72.9277 7.78532 72.2783 7.84229C71.6403 7.89925 71.0991 7.97331 70.6548 8.06445C70.2218 8.1556 69.8743 8.26383 69.6123 8.38916C69.3616 8.50309 69.168 8.62272 69.0312 8.74805C68.8945 8.87337 68.8034 8.9987 68.7578 9.12402C68.7236 9.24935 68.7065 9.36328 68.7065 9.46582C68.7065 9.80762 68.8774 10.1095 69.2192 10.3716C69.561 10.6222 70.0281 10.8501 70.6206 11.0552C71.213 11.2489 71.9023 11.4368 72.6885 11.6191C73.4746 11.79 74.3063 11.9723 75.1836 12.166C76.0723 12.3483 76.9837 12.5534 77.918 12.7812C78.8636 12.9977 79.775 13.2541 80.6523 13.5503C81.541 13.8465 82.3784 14.194 83.1645 14.5928C83.9507 14.9801 84.64 15.4359 85.2324 15.96C85.8249 16.484 86.292 17.0879 86.6338 17.7715C86.9756 18.4551 87.1465 19.2355 87.1465 20.1128C87.1465 21.2407 86.9471 22.2091 86.5483 23.0181C86.1496 23.827 85.6141 24.5106 84.9419 25.0688C84.2811 25.6271 83.512 26.0771 82.6348 26.4189C81.7575 26.7493 80.8346 27.0057 79.8662 27.188C78.9092 27.3703 77.935 27.4899 76.9438 27.5469C75.964 27.6038 75.0298 27.6323 74.1411 27.6323C71.8169 27.6323 69.6636 27.4386 67.6811 27.0513C65.7101 26.6753 63.9669 26.2025 62.4516 25.6328V20.0273C64.0125 20.8932 65.7899 21.5711 67.7837 22.061C69.7889 22.5509 71.9308 22.7959 74.2095 22.7959C75.5539 22.7959 76.6476 22.7275 77.4907 22.5908C78.3452 22.4427 79.0117 22.2604 79.4902 22.0439C79.9687 21.8161 80.2934 21.5711 80.4643 21.3091C80.6352 21.047 80.7207 20.7964 80.7207 20.5571C80.7207 20.1812 80.5498 19.8564 80.208 19.583C79.8662 19.2982 79.3991 19.0532 78.8066 18.8481C78.2142 18.6317 77.5249 18.438 76.7388 18.2671C75.9526 18.0848 75.1152 17.9082 74.2265 17.7373C73.3493 17.555 72.4435 17.3613 71.5093 17.1562C70.575 16.9512 69.6636 16.7119 68.7749 16.4385C67.8976 16.1536 67.0659 15.8289 66.2798 15.4644C65.4936 15.0884 64.8043 14.6497 64.2119 14.1484C63.6195 13.6357 63.1523 13.049 62.8105 12.3882C62.4687 11.716 62.2978 10.9412 62.2978 10.064C62.2978 9.02718 62.4801 8.13281 62.8447 7.38086C63.2093 6.62891 63.6992 5.99089 64.3144 5.4668C64.9411 4.93132 65.6588 4.49837 66.4678 4.16797C67.2881 3.83757 68.1483 3.58122 69.0483 3.39893C69.9484 3.21663 70.8598 3.09131 71.7827 3.02295C72.7056 2.95459 73.5828 2.92041 74.4145 2.92041C75.326 2.92041 76.2602 2.96598 77.2173 3.05713C78.1857 3.14827 79.137 3.2793 80.0713 3.4502C81.0055 3.6097 81.9056 3.79769 82.7715 4.01416C83.6487 4.23063 84.4577 4.4585 85.1982 4.69775V10.1323ZM119.549 11.5337C119.549 12.7072 119.378 13.7896 119.036 14.7808C118.694 15.7606 118.142 16.6094 117.378 17.3271C116.626 18.0335 115.647 18.5861 114.439 18.9849C113.231 19.3836 111.762 19.583 110.03 19.583H99.5024V27H93.1621V3.51855H110.03C111.762 3.51855 113.231 3.71794 114.439 4.1167C115.647 4.50407 116.626 5.05664 117.378 5.77441C118.142 6.48079 118.694 7.32389 119.036 8.30371C119.378 9.28353 119.549 10.3602 119.549 11.5337ZM113.14 11.6362C113.14 11.0894 113.06 10.6222 112.901 10.2349C112.753 9.8361 112.502 9.51139 112.149 9.26074C111.796 9.01009 111.334 8.8278 110.765 8.71387C110.195 8.58854 109.494 8.52588 108.663 8.52588H99.5024V14.5757H108.663C109.494 14.5757 110.195 14.5301 110.765 14.439C111.334 14.3364 111.796 14.1712 112.149 13.9434C112.502 13.7041 112.753 13.3965 112.901 13.0205C113.06 12.6445 113.14 12.1831 113.14 11.6362ZM146.414 8.8335C146.243 8.77653 145.992 8.70247 145.662 8.61133C145.343 8.50879 144.967 8.41195 144.534 8.3208C144.101 8.21826 143.623 8.13281 143.099 8.06445C142.586 7.99609 142.056 7.96191 141.509 7.96191C140.37 7.96191 139.305 8.10433 138.313 8.38916C137.334 8.6626 136.416 9.03288 135.562 9.5C134.708 9.95573 133.91 10.4798 133.169 11.0723C132.44 11.6533 131.768 12.2515 131.153 12.8667V27H124.812V3.51855H131.153V7.32959C131.916 6.75993 132.697 6.21305 133.494 5.68896C134.303 5.15348 135.14 4.68066 136.006 4.27051C136.884 3.86035 137.806 3.53564 138.775 3.29639C139.743 3.04574 140.769 2.92041 141.851 2.92041C142.261 2.92041 142.677 2.9432 143.099 2.98877C143.532 3.02295 143.947 3.06852 144.346 3.12549C144.756 3.18245 145.138 3.24512 145.491 3.31348C145.844 3.38184 146.152 3.4502 146.414 3.51855V8.8335ZM176.629 25.8379C174.703 26.4759 172.778 26.9316 170.853 27.2051C168.938 27.4899 166.979 27.6323 164.974 27.6323C162.41 27.6323 160.126 27.3589 158.121 26.812C156.127 26.2537 154.446 25.4505 153.079 24.4023C151.712 23.3542 150.669 22.0724 149.952 20.5571C149.234 19.0418 148.875 17.3271 148.875 15.4131C148.875 13.6357 149.234 11.9894 149.952 10.4741C150.681 8.94743 151.706 7.62581 153.028 6.50928C154.361 5.38135 155.967 4.50407 157.847 3.87744C159.727 3.23942 161.823 2.92041 164.136 2.92041C166.267 2.92041 168.215 3.21094 169.981 3.79199C171.758 4.36165 173.279 5.21045 174.544 6.33838C175.82 7.46631 176.805 8.85628 177.5 10.5083C178.207 12.1603 178.56 14.063 178.56 16.2163V17.7886H155.42C155.625 18.5291 155.962 19.207 156.429 19.8223C156.907 20.4375 157.551 20.9616 158.36 21.3945C159.169 21.8275 160.16 22.1636 161.333 22.4028C162.518 22.6421 163.931 22.7617 165.572 22.7617C166.734 22.7617 167.873 22.6934 168.99 22.5566C170.106 22.4085 171.149 22.2205 172.117 21.9927C173.086 21.7534 173.957 21.4914 174.732 21.2065C175.518 20.9217 176.15 20.6369 176.629 20.3521V25.8379ZM172.254 13.1401C172.197 12.5591 172.02 11.9609 171.724 11.3457C171.439 10.7191 170.984 10.1551 170.357 9.65381C169.73 9.15251 168.91 8.74235 167.896 8.42334C166.882 8.09294 165.617 7.92773 164.102 7.92773C162.678 7.92773 161.447 8.10433 160.411 8.45752C159.374 8.81071 158.502 9.24935 157.796 9.77344C157.101 10.2975 156.56 10.8615 156.172 11.4653C155.785 12.0692 155.534 12.6274 155.42 13.1401H172.254ZM210.501 25.8379C208.576 26.4759 206.65 26.9316 204.725 27.2051C202.811 27.4899 200.851 27.6323 198.846 27.6323C196.282 27.6323 193.998 27.3589 191.993 26.812C189.999 26.2537 188.318 25.4505 186.951 24.4023C185.584 23.3542 184.541 22.0724 183.824 20.5571C183.106 19.0418 182.747 17.3271 182.747 15.4131C182.747 13.6357 183.106 11.9894 183.824 10.4741C184.553 8.94743 185.578 7.62581 186.9 6.50928C188.233 5.38135 189.839 4.50407 191.719 3.87744C193.599 3.23942 195.695 2.92041 198.008 2.92041C200.139 2.92041 202.087 3.21094 203.853 3.79199C205.63 4.36165 207.151 5.21045 208.416 6.33838C209.692 7.46631 210.678 8.85628 211.373 10.5083C212.079 12.1603 212.432 14.063 212.432 16.2163V17.7886H189.292C189.498 18.5291 189.834 19.207 190.301 19.8223C190.779 20.4375 191.423 20.9616 192.232 21.3945C193.041 21.8275 194.032 22.1636 195.206 22.4028C196.39 22.6421 197.803 22.7617 199.444 22.7617C200.606 22.7617 201.745 22.6934 202.862 22.5566C203.978 22.4085 205.021 22.2205 205.989 21.9927C206.958 21.7534 207.829 21.4914 208.604 21.2065C209.39 20.9217 210.022 20.6369 210.501 20.3521V25.8379ZM206.126 13.1401C206.069 12.5591 205.892 11.9609 205.596 11.3457C205.311 10.7191 204.856 10.1551 204.229 9.65381C203.602 9.15251 202.782 8.74235 201.768 8.42334C200.754 8.09294 199.489 7.92773 197.974 7.92773C196.55 7.92773 195.319 8.10433 194.283 8.45752C193.246 8.81071 192.374 9.24935 191.668 9.77344C190.973 10.2975 190.432 10.8615 190.044 11.4653C189.657 12.0692 189.406 12.6274 189.292 13.1401H206.126ZM231.009 8.62842V27H224.668V8.62842H214.705V3.51855H240.989V8.62842H231.009ZM266.829 10.1323C266.385 9.91585 265.798 9.6709 265.069 9.39746C264.34 9.12402 263.514 8.86768 262.591 8.62842C261.668 8.37777 260.665 8.17269 259.583 8.01318C258.501 7.84229 257.39 7.75684 256.25 7.75684C255.339 7.75684 254.559 7.78532 253.909 7.84229C253.271 7.89925 252.73 7.97331 252.286 8.06445C251.853 8.1556 251.505 8.26383 251.243 8.38916C250.992 8.50309 250.799 8.62272 250.662 8.74805C250.525 8.87337 250.434 8.9987 250.389 9.12402C250.354 9.24935 250.337 9.36328 250.337 9.46582C250.337 9.80762 250.508 10.1095 250.85 10.3716C251.192 10.6222 251.659 10.8501 252.251 11.0552C252.844 11.2489 253.533 11.4368 254.319 11.6191C255.105 11.79 255.937 11.9723 256.814 12.166C257.703 12.3483 258.615 12.5534 259.549 12.7812C260.494 12.9977 261.406 13.2541 262.283 13.5503C263.172 13.8465 264.009 14.194 264.795 14.5928C265.582 14.9801 266.271 15.4359 266.863 15.96C267.456 16.484 267.923 17.0879 268.265 17.7715C268.606 18.4551 268.777 19.2355 268.777 20.1128C268.777 21.2407 268.578 22.2091 268.179 23.0181C267.78 23.827 267.245 24.5106 266.573 25.0688C265.912 25.6271 265.143 26.0771 264.266 26.4189C263.388 26.7493 262.465 27.0057 261.497 27.188C260.54 27.3703 259.566 27.4899 258.575 27.5469C257.595 27.6038 256.661 27.6323 255.772 27.6323C253.448 27.6323 251.294 27.4386 249.312 27.0513C247.341 26.6753 245.598 26.2025 244.083 25.6328V20.0273C245.643 20.8932 247.421 21.5711 249.415 22.061C251.42 22.5509 253.562 22.7959 255.84 22.7959C257.185 22.7959 258.278 22.7275 259.122 22.5908C259.976 22.4427 260.643 22.2604 261.121 22.0439C261.6 21.8161 261.924 21.5711 262.095 21.3091C262.266 21.047 262.352 20.7964 262.352 20.5571C262.352 20.1812 262.181 19.8564 261.839 19.583C261.497 19.2982 261.03 19.0532 260.437 18.8481C259.845 18.6317 259.156 18.438 258.37 18.2671C257.583 18.0848 256.746 17.9082 255.857 17.7373C254.98 17.555 254.074 17.3613 253.14 17.1562C252.206 16.9512 251.294 16.7119 250.406 16.4385C249.528 16.1536 248.697 15.8289 247.911 15.4644C247.124 15.0884 246.435 14.6497 245.843 14.1484C245.25 13.6357 244.783 13.049 244.441 12.3882C244.1 11.716 243.929 10.9412 243.929 10.064C243.929 9.02718 244.111 8.13281 244.476 7.38086C244.84 6.62891 245.33 5.99089 245.945 5.4668C246.572 4.93132 247.29 4.49837 248.099 4.16797C248.919 3.83757 249.779 3.58122 250.679 3.39893C251.579 3.21663 252.491 3.09131 253.414 3.02295C254.336 2.95459 255.214 2.92041 256.045 2.92041C256.957 2.92041 257.891 2.96598 258.848 3.05713C259.817 3.14827 260.768 3.2793 261.702 3.4502C262.636 3.6097 263.536 3.79769 264.402 4.01416C265.28 4.23063 266.089 4.4585 266.829 4.69775V10.1323ZM274.793 27V3.51855H281.133V27H274.793ZM310.87 27V13.8408C310.87 12.9635 310.796 12.1717 310.647 11.4653C310.499 10.7476 310.22 10.138 309.81 9.63672C309.411 9.12402 308.847 8.73096 308.118 8.45752C307.4 8.17269 306.472 8.03027 305.333 8.03027C304.467 8.03027 303.555 8.1499 302.598 8.38916C301.653 8.61702 300.713 8.92464 299.778 9.31201C298.844 9.69938 297.95 10.1494 297.095 10.6621C296.252 11.1748 295.5 11.7103 294.839 12.2686V27H288.499V3.51855H294.839V6.73145C295.637 6.27572 296.486 5.82568 297.386 5.38135C298.286 4.92562 299.243 4.51546 300.257 4.15088C301.271 3.7863 302.347 3.49007 303.487 3.26221C304.626 3.03434 305.828 2.92041 307.093 2.92041C308.676 2.92041 310.089 3.1141 311.331 3.50146C312.584 3.87744 313.644 4.41862 314.51 5.125C315.376 5.81999 316.036 6.66878 316.492 7.67139C316.959 8.6626 317.193 9.77344 317.193 11.0039V27H310.87ZM339.581 2.92041C341.882 2.92041 344.018 3.11979 345.989 3.51855C347.972 3.90592 349.789 4.40723 351.441 5.02246V10.7646C350.792 10.4001 350.057 10.0469 349.236 9.70508C348.427 9.36328 347.544 9.06136 346.587 8.79932C345.63 8.53727 344.605 8.3265 343.511 8.16699C342.417 8.00749 341.267 7.92773 340.059 7.92773C338.555 7.92773 337.245 8.03597 336.128 8.25244C335.012 8.46891 334.055 8.75944 333.257 9.12402C332.46 9.48861 331.805 9.91585 331.292 10.4058C330.779 10.8843 330.375 11.397 330.079 11.9438C329.782 12.4907 329.577 13.049 329.463 13.6187C329.349 14.1883 329.292 14.7409 329.292 15.2764C329.292 15.7435 329.338 16.2505 329.429 16.7974C329.532 17.3442 329.714 17.8911 329.976 18.438C330.25 18.9849 330.625 19.509 331.104 20.0103C331.583 20.5116 332.203 20.9559 332.967 21.3433C333.742 21.7306 334.67 22.0439 335.752 22.2832C336.835 22.5111 338.122 22.625 339.615 22.625C340.367 22.625 341.022 22.6022 341.58 22.5566C342.138 22.5111 342.645 22.4484 343.101 22.3687C343.568 22.2889 344.001 22.1921 344.4 22.0781C344.81 21.9642 345.232 21.8446 345.665 21.7192V18.8823H338.555V13.7383H352.005V25.7354C351.162 26.0202 350.216 26.2822 349.168 26.5215C348.131 26.7493 347.055 26.943 345.938 27.1025C344.833 27.2734 343.722 27.4045 342.605 27.4956C341.489 27.5868 340.435 27.6323 339.444 27.6323C337.906 27.6323 336.43 27.5298 335.018 27.3247C333.605 27.1196 332.283 26.8063 331.053 26.3848C329.834 25.9518 328.717 25.4049 327.703 24.7441C326.701 24.0833 325.84 23.2972 325.123 22.3857C324.416 21.4743 323.864 20.4318 323.465 19.2583C323.077 18.0734 322.884 16.7461 322.884 15.2764C322.884 13.818 323.089 12.4964 323.499 11.3115C323.909 10.1266 324.479 9.07845 325.208 8.16699C325.949 7.25553 326.832 6.4694 327.857 5.80859C328.894 5.14779 330.027 4.60661 331.258 4.18506C332.5 3.75212 333.821 3.43311 335.223 3.22803C336.635 3.02295 338.088 2.92041 339.581 2.92041ZM381.314 27V17.2075H365.181V27H358.841V3.51855H365.181V12.0635H381.314V3.51855H387.654V27H381.314Z" fill="white"/>
<path d="M334.395 48.04V44.876H337.726V48.04H334.395ZM355.313 41.9932C355.313 42.7666 355.228 43.4551 355.058 44.0586C354.888 44.6562 354.648 45.1777 354.337 45.623C354.032 46.0684 353.663 46.4463 353.23 46.7568C352.802 47.0674 352.324 47.3164 351.797 47.5039C351.27 47.6914 350.701 47.8291 350.092 47.917C349.483 47.999 348.847 48.04 348.185 48.04H340.521V35.9639H348.167C348.829 35.9639 349.465 36.0078 350.074 36.0957C350.684 36.1777 351.252 36.3125 351.78 36.5C352.313 36.6875 352.796 36.9365 353.23 37.2471C353.663 37.5518 354.032 37.9297 354.337 38.3809C354.648 38.8262 354.888 39.3477 355.058 39.9453C355.228 40.543 355.313 41.2256 355.313 41.9932ZM352.026 41.9932C352.026 41.4131 351.949 40.9092 351.797 40.4814C351.651 40.0537 351.41 39.7021 351.076 39.4268C350.748 39.1455 350.318 38.9375 349.784 38.8027C349.251 38.6621 348.601 38.5918 347.833 38.5918H343.781V45.4121H347.833C348.601 45.4121 349.251 45.3447 349.784 45.21C350.318 45.0693 350.748 44.8584 351.076 44.5771C351.41 44.29 351.651 43.9326 351.797 43.5049C351.949 43.0771 352.026 42.5732 352.026 41.9932ZM371.757 47.4424C370.767 47.7705 369.777 48.0049 368.786 48.1455C367.802 48.292 366.794 48.3652 365.763 48.3652C364.445 48.3652 363.27 48.2246 362.239 47.9434C361.213 47.6562 360.349 47.2432 359.646 46.7041C358.943 46.165 358.406 45.5059 358.037 44.7266C357.668 43.9473 357.484 43.0654 357.484 42.0811C357.484 41.167 357.668 40.3203 358.037 39.541C358.412 38.7559 358.94 38.0762 359.619 37.502C360.305 36.9219 361.131 36.4707 362.098 36.1484C363.065 35.8203 364.143 35.6562 365.332 35.6562C366.428 35.6562 367.43 35.8057 368.338 36.1045C369.252 36.3975 370.034 36.834 370.685 37.4141C371.341 37.9941 371.848 38.709 372.205 39.5586C372.569 40.4082 372.75 41.3867 372.75 42.4941V43.3027H360.85C360.955 43.6836 361.128 44.0322 361.368 44.3486C361.615 44.665 361.946 44.9346 362.362 45.1572C362.778 45.3799 363.287 45.5527 363.891 45.6758C364.5 45.7988 365.227 45.8604 366.071 45.8604C366.668 45.8604 367.254 45.8252 367.828 45.7549C368.403 45.6787 368.939 45.582 369.437 45.4648C369.935 45.3418 370.383 45.207 370.781 45.0605C371.186 44.9141 371.511 44.7676 371.757 44.6211V47.4424ZM369.507 40.9121C369.478 40.6133 369.387 40.3057 369.235 39.9893C369.088 39.667 368.854 39.377 368.531 39.1191C368.209 38.8613 367.787 38.6504 367.266 38.4863C366.744 38.3164 366.094 38.2314 365.315 38.2314C364.582 38.2314 363.949 38.3223 363.416 38.5039C362.883 38.6855 362.435 38.9111 362.072 39.1807C361.714 39.4502 361.436 39.7402 361.237 40.0508C361.037 40.3613 360.908 40.6484 360.85 40.9121H369.507ZM383.728 48.04H379.931L373.823 35.9639H377.461L381.856 45.0518L386.241 35.9639H389.88L383.728 48.04Z" fill="white"/>
</svg>
