<svg width="390" height="52" viewBox="0 0 390 52" fill="none" xmlns="http://www.w3.org/2000/svg">
<path d="M21.1107 18.3184C21.1107 19.8792 20.8544 21.2236 20.3417 22.3516C19.8404 23.4795 19.0998 24.408 18.12 25.1372C17.1516 25.8664 15.961 26.4076 14.5482 26.7607C13.1355 27.1025 11.5233 27.2734 9.71181 27.2734C8.85732 27.2734 7.98004 27.2279 7.07997 27.1367C6.17991 27.057 5.31402 26.9544 4.48232 26.8291C3.65061 26.7038 2.88157 26.5728 2.17519 26.436C1.4802 26.2879 0.899144 26.1512 0.432022 26.0259V20.5229C0.910538 20.7166 1.43463 20.916 2.00429 21.1211C2.57395 21.3148 3.20627 21.4914 3.90126 21.6509C4.60764 21.8104 5.38238 21.9414 6.22548 22.0439C7.07997 22.1465 8.01991 22.1978 9.0453 22.1978C10.1504 22.1978 11.0676 22.0781 11.7968 21.8389C12.5373 21.5882 13.1298 21.2464 13.5741 20.8135C14.0184 20.3691 14.3318 19.8507 14.5141 19.2583C14.6963 18.6659 14.7875 18.0164 14.7875 17.3101V3.51855H21.1107V18.3184ZM48.2152 27V24.6929C47.4063 25.1372 46.5347 25.5303 45.6005 25.8721C44.6776 26.2139 43.7149 26.5044 42.7123 26.7437C41.7097 26.9829 40.6729 27.1595 39.6019 27.2734C38.5424 27.3988 37.4714 27.4614 36.3891 27.4614C35.1244 27.4614 33.8996 27.3418 32.7147 27.1025C31.5412 26.8633 30.4988 26.4759 29.5873 25.9404C28.6758 25.4049 27.941 24.7043 27.3827 23.8384C26.8358 22.9725 26.5624 21.9129 26.5624 20.6597C26.5624 19.076 26.9953 17.7601 27.8612 16.7119C28.7271 15.6523 30.0487 14.7865 31.8261 14.1143C33.6034 13.4421 35.8479 12.9237 38.5595 12.5591C41.2824 12.1945 44.501 11.9097 48.2152 11.7046V11.209C48.2152 10.8216 48.1127 10.4399 47.9076 10.064C47.7025 9.6766 47.3266 9.34049 46.7797 9.05566C46.2442 8.75944 45.5036 8.52018 44.558 8.33789C43.6238 8.1556 42.4275 8.06445 40.9691 8.06445C39.8184 8.06445 38.6791 8.12712 37.5512 8.25244C36.4346 8.36637 35.3523 8.52588 34.3041 8.73096C33.2673 8.93604 32.2818 9.17529 31.3475 9.44873C30.4133 9.72217 29.5645 10.007 28.8012 10.3032V4.66357C29.5987 4.4585 30.4931 4.25911 31.4843 4.06543C32.4755 3.87174 33.5066 3.70654 34.5775 3.56982C35.6485 3.42171 36.7309 3.30778 37.8246 3.22803C38.9184 3.13688 39.9665 3.09131 40.9691 3.09131C42.9402 3.09131 44.7574 3.25651 46.4208 3.58691C48.0842 3.90592 49.5141 4.40723 50.7103 5.09082C51.918 5.77441 52.858 6.6403 53.5302 7.68848C54.2138 8.73665 54.5556 9.98421 54.5556 11.4312V27H48.2152ZM48.2152 16.2847C45.7771 16.3758 43.7035 16.5068 41.9945 16.6777C40.2969 16.8486 38.8842 17.048 37.7562 17.2759C36.6283 17.5037 35.7396 17.7487 35.0902 18.0107C34.4522 18.2728 33.9737 18.5405 33.6547 18.814C33.3357 19.0874 33.1363 19.3608 33.0565 19.6343C32.9882 19.9077 32.954 20.1584 32.954 20.3862C32.954 20.6597 33.0281 20.9274 33.1762 21.1895C33.3243 21.4401 33.5806 21.6623 33.9452 21.856C34.3212 22.0496 34.8168 22.2035 35.432 22.3174C36.0473 22.4313 36.822 22.4883 37.7562 22.4883C38.793 22.4883 39.807 22.4085 40.7982 22.249C41.7894 22.0895 42.7294 21.873 43.6181 21.5996C44.5067 21.3148 45.3384 20.9844 46.1132 20.6084C46.8993 20.221 47.6 19.8109 48.2152 19.3779V16.2847ZM83.4374 10.1323C82.9931 9.91585 82.4063 9.6709 81.6771 9.39746C80.948 9.12402 80.122 8.86768 79.1991 8.62842C78.2763 8.37777 77.2737 8.17269 76.1913 8.01318C75.1089 7.84229 73.9981 7.75684 72.8588 7.75684C71.9473 7.75684 71.1669 7.78532 70.5175 7.84229C69.8795 7.89925 69.3383 7.97331 68.8939 8.06445C68.461 8.1556 68.1135 8.26383 67.8515 8.38916C67.6008 8.50309 67.4071 8.62272 67.2704 8.74805C67.1337 8.87337 67.0425 8.9987 66.997 9.12402C66.9628 9.24935 66.9457 9.36328 66.9457 9.46582C66.9457 9.80762 67.1166 10.1095 67.4584 10.3716C67.8002 10.6222 68.2673 10.8501 68.8598 11.0552C69.4522 11.2489 70.1415 11.4368 70.9276 11.6191C71.7138 11.79 72.5455 11.9723 73.4227 12.166C74.3114 12.3483 75.2229 12.5534 76.1571 12.7812C77.1028 12.9977 78.0142 13.2541 78.8915 13.5503C79.7802 13.8465 80.6176 14.194 81.4037 14.5928C82.1898 14.9801 82.8791 15.4359 83.4716 15.96C84.064 16.484 84.5311 17.0879 84.8729 17.7715C85.2147 18.4551 85.3856 19.2355 85.3856 20.1128C85.3856 21.2407 85.1863 22.2091 84.7875 23.0181C84.3887 23.827 83.8532 24.5106 83.181 25.0688C82.5202 25.6271 81.7512 26.0771 80.8739 26.4189C79.9966 26.7493 79.0738 27.0057 78.1054 27.188C77.1483 27.3703 76.1742 27.4899 75.183 27.5469C74.2032 27.6038 73.2689 27.6323 72.3803 27.6323C70.056 27.6323 67.9027 27.4386 65.9203 27.0513C63.9493 26.6753 62.2061 26.2025 60.6908 25.6328V20.0273C62.2517 20.8932 64.029 21.5711 66.0228 22.061C68.0281 22.5509 70.17 22.7959 72.4486 22.7959C73.793 22.7959 74.8868 22.7275 75.7299 22.5908C76.5844 22.4427 77.2509 22.2604 77.7294 22.0439C78.2079 21.8161 78.5326 21.5711 78.7035 21.3091C78.8744 21.047 78.9599 20.7964 78.9599 20.5571C78.9599 20.1812 78.789 19.8564 78.4472 19.583C78.1054 19.2982 77.6382 19.0532 77.0458 18.8481C76.4533 18.6317 75.7641 18.438 74.9779 18.2671C74.1918 18.0848 73.3544 17.9082 72.4657 17.7373C71.5884 17.555 70.6827 17.3613 69.7484 17.1562C68.8142 16.9512 67.9027 16.7119 67.0141 16.4385C66.1368 16.1536 65.3051 15.8289 64.5189 15.4644C63.7328 15.0884 63.0435 14.6497 62.4511 14.1484C61.8586 13.6357 61.3915 13.049 61.0497 12.3882C60.7079 11.716 60.537 10.9412 60.537 10.064C60.537 9.02718 60.7193 8.13281 61.0839 7.38086C61.4485 6.62891 61.9384 5.99089 62.5536 5.4668C63.1802 4.93132 63.898 4.49837 64.7069 4.16797C65.5272 3.83757 66.3874 3.58122 67.2875 3.39893C68.1876 3.21663 69.099 3.09131 70.0219 3.02295C70.9447 2.95459 71.822 2.92041 72.6537 2.92041C73.5652 2.92041 74.4994 2.96598 75.4564 3.05713C76.4249 3.14827 77.3762 3.2793 78.3104 3.4502C79.2447 3.6097 80.1447 3.79769 81.0106 4.01416C81.8879 4.23063 82.6968 4.4585 83.4374 4.69775V10.1323ZM117.788 11.5337C117.788 12.7072 117.617 13.7896 117.275 14.7808C116.933 15.7606 116.381 16.6094 115.618 17.3271C114.866 18.0335 113.886 18.5861 112.678 18.9849C111.47 19.3836 110.001 19.583 108.269 19.583H97.7416V27H91.4013V3.51855H108.269C110.001 3.51855 111.47 3.71794 112.678 4.1167C113.886 4.50407 114.866 5.05664 115.618 5.77441C116.381 6.48079 116.933 7.32389 117.275 8.30371C117.617 9.28353 117.788 10.3602 117.788 11.5337ZM111.379 11.6362C111.379 11.0894 111.3 10.6222 111.14 10.2349C110.992 9.8361 110.741 9.51139 110.388 9.26074C110.035 9.01009 109.573 8.8278 109.004 8.71387C108.434 8.58854 107.733 8.52588 106.902 8.52588H97.7416V14.5757H106.902C107.733 14.5757 108.434 14.5301 109.004 14.439C109.573 14.3364 110.035 14.1712 110.388 13.9434C110.741 13.7041 110.992 13.3965 111.14 13.0205C111.3 12.6445 111.379 12.1831 111.379 11.6362ZM144.653 8.8335C144.482 8.77653 144.232 8.70247 143.901 8.61133C143.582 8.50879 143.206 8.41195 142.773 8.3208C142.34 8.21826 141.862 8.13281 141.338 8.06445C140.825 7.99609 140.295 7.96191 139.748 7.96191C138.609 7.96191 137.544 8.10433 136.553 8.38916C135.573 8.6626 134.656 9.03288 133.801 9.5C132.947 9.95573 132.149 10.4798 131.409 11.0723C130.679 11.6533 130.007 12.2515 129.392 12.8667V27H123.052V3.51855H129.392V7.32959C130.155 6.75993 130.936 6.21305 131.733 5.68896C132.542 5.15348 133.38 4.68066 134.245 4.27051C135.123 3.86035 136.046 3.53564 137.014 3.29639C137.982 3.04574 139.008 2.92041 140.09 2.92041C140.5 2.92041 140.916 2.9432 141.338 2.98877C141.771 3.02295 142.187 3.06852 142.585 3.12549C142.995 3.18245 143.377 3.24512 143.73 3.31348C144.084 3.38184 144.391 3.4502 144.653 3.51855V8.8335ZM174.868 25.8379C172.943 26.4759 171.017 26.9316 169.092 27.2051C167.178 27.4899 165.218 27.6323 163.213 27.6323C160.649 27.6323 158.365 27.3589 156.36 26.812C154.366 26.2537 152.685 25.4505 151.318 24.4023C149.951 23.3542 148.909 22.0724 148.191 20.5571C147.473 19.0418 147.114 17.3271 147.114 15.4131C147.114 13.6357 147.473 11.9894 148.191 10.4741C148.92 8.94743 149.945 7.62581 151.267 6.50928C152.6 5.38135 154.206 4.50407 156.086 3.87744C157.966 3.23942 160.063 2.92041 162.375 2.92041C164.506 2.92041 166.454 3.21094 168.22 3.79199C169.997 4.36165 171.518 5.21045 172.783 6.33838C174.059 7.46631 175.045 8.85628 175.74 10.5083C176.446 12.1603 176.799 14.063 176.799 16.2163V17.7886H153.66C153.865 18.5291 154.201 19.207 154.668 19.8223C155.146 20.4375 155.79 20.9616 156.599 21.3945C157.408 21.8275 158.399 22.1636 159.573 22.4028C160.758 22.6421 162.17 22.7617 163.811 22.7617C164.973 22.7617 166.112 22.6934 167.229 22.5566C168.345 22.4085 169.388 22.2205 170.356 21.9927C171.325 21.7534 172.196 21.4914 172.971 21.2065C173.757 20.9217 174.39 20.6369 174.868 20.3521V25.8379ZM170.493 13.1401C170.436 12.5591 170.259 11.9609 169.963 11.3457C169.678 10.7191 169.223 10.1551 168.596 9.65381C167.969 9.15251 167.149 8.74235 166.135 8.42334C165.121 8.09294 163.857 7.92773 162.341 7.92773C160.917 7.92773 159.687 8.10433 158.65 8.45752C157.613 8.81071 156.741 9.24935 156.035 9.77344C155.34 10.2975 154.799 10.8615 154.412 11.4653C154.024 12.0692 153.773 12.6274 153.66 13.1401H170.493ZM208.74 25.8379C206.815 26.4759 204.889 26.9316 202.964 27.2051C201.05 27.4899 199.09 27.6323 197.085 27.6323C194.521 27.6323 192.237 27.3589 190.232 26.812C188.238 26.2537 186.558 25.4505 185.19 24.4023C183.823 23.3542 182.781 22.0724 182.063 20.5571C181.345 19.0418 180.986 17.3271 180.986 15.4131C180.986 13.6357 181.345 11.9894 182.063 10.4741C182.792 8.94743 183.817 7.62581 185.139 6.50928C186.472 5.38135 188.079 4.50407 189.958 3.87744C191.838 3.23942 193.935 2.92041 196.247 2.92041C198.378 2.92041 200.326 3.21094 202.092 3.79199C203.87 4.36165 205.391 5.21045 206.655 6.33838C207.931 7.46631 208.917 8.85628 209.612 10.5083C210.318 12.1603 210.671 14.063 210.671 16.2163V17.7886H187.532C187.737 18.5291 188.073 19.207 188.54 19.8223C189.018 20.4375 189.662 20.9616 190.471 21.3945C191.28 21.8275 192.271 22.1636 193.445 22.4028C194.63 22.6421 196.042 22.7617 197.683 22.7617C198.845 22.7617 199.984 22.6934 201.101 22.5566C202.218 22.4085 203.26 22.2205 204.228 21.9927C205.197 21.7534 206.068 21.4914 206.843 21.2065C207.629 20.9217 208.262 20.6369 208.74 20.3521V25.8379ZM204.365 13.1401C204.308 12.5591 204.132 11.9609 203.835 11.3457C203.551 10.7191 203.095 10.1551 202.468 9.65381C201.842 9.15251 201.021 8.74235 200.007 8.42334C198.993 8.09294 197.729 7.92773 196.213 7.92773C194.789 7.92773 193.559 8.10433 192.522 8.45752C191.485 8.81071 190.613 9.24935 189.907 9.77344C189.212 10.2975 188.671 10.8615 188.284 11.4653C187.896 12.0692 187.646 12.6274 187.532 13.1401H204.365ZM229.248 8.62842V27H222.908V8.62842H212.944V3.51855H239.228V8.62842H229.248ZM265.068 10.1323C264.624 9.91585 264.037 9.6709 263.308 9.39746C262.579 9.12402 261.753 8.86768 260.83 8.62842C259.907 8.37777 258.905 8.17269 257.822 8.01318C256.74 7.84229 255.629 7.75684 254.49 7.75684C253.578 7.75684 252.798 7.78532 252.148 7.84229C251.51 7.89925 250.969 7.97331 250.525 8.06445C250.092 8.1556 249.744 8.26383 249.482 8.38916C249.232 8.50309 249.038 8.62272 248.901 8.74805C248.765 8.87337 248.673 8.9987 248.628 9.12402C248.594 9.24935 248.577 9.36328 248.577 9.46582C248.577 9.80762 248.747 10.1095 249.089 10.3716C249.431 10.6222 249.898 10.8501 250.491 11.0552C251.083 11.2489 251.772 11.4368 252.558 11.6191C253.345 11.79 254.176 11.9723 255.054 12.166C255.942 12.3483 256.854 12.5534 257.788 12.7812C258.734 12.9977 259.645 13.2541 260.522 13.5503C261.411 13.8465 262.248 14.194 263.035 14.5928C263.821 14.9801 264.51 15.4359 265.102 15.96C265.695 16.484 266.162 17.0879 266.504 17.7715C266.846 18.4551 267.016 19.2355 267.016 20.1128C267.016 21.2407 266.817 22.2091 266.418 23.0181C266.02 23.827 265.484 24.5106 264.812 25.0688C264.151 25.6271 263.382 26.0771 262.505 26.4189C261.627 26.7493 260.705 27.0057 259.736 27.188C258.779 27.3703 257.805 27.4899 256.814 27.5469C255.834 27.6038 254.9 27.6323 254.011 27.6323C251.687 27.6323 249.534 27.4386 247.551 27.0513C245.58 26.6753 243.837 26.2025 242.322 25.6328V20.0273C243.883 20.8932 245.66 21.5711 247.654 22.061C249.659 22.5509 251.801 22.7959 254.079 22.7959C255.424 22.7959 256.518 22.7275 257.361 22.5908C258.215 22.4427 258.882 22.2604 259.36 22.0439C259.839 21.8161 260.163 21.5711 260.334 21.3091C260.505 21.047 260.591 20.7964 260.591 20.5571C260.591 20.1812 260.42 19.8564 260.078 19.583C259.736 19.2982 259.269 19.0532 258.677 18.8481C258.084 18.6317 257.395 18.438 256.609 18.2671C255.823 18.0848 254.985 17.9082 254.097 17.7373C253.219 17.555 252.314 17.3613 251.379 17.1562C250.445 16.9512 249.534 16.7119 248.645 16.4385C247.768 16.1536 246.936 15.8289 246.15 15.4644C245.364 15.0884 244.674 14.6497 244.082 14.1484C243.489 13.6357 243.022 13.049 242.681 12.3882C242.339 11.716 242.168 10.9412 242.168 10.064C242.168 9.02718 242.35 8.13281 242.715 7.38086C243.079 6.62891 243.569 5.99089 244.184 5.4668C244.811 4.93132 245.529 4.49837 246.338 4.16797C247.158 3.83757 248.018 3.58122 248.918 3.39893C249.818 3.21663 250.73 3.09131 251.653 3.02295C252.576 2.95459 253.453 2.92041 254.285 2.92041C255.196 2.92041 256.13 2.96598 257.087 3.05713C258.056 3.14827 259.007 3.2793 259.941 3.4502C260.876 3.6097 261.776 3.79769 262.641 4.01416C263.519 4.23063 264.328 4.4585 265.068 4.69775V10.1323ZM273.032 27V3.51855H279.372V27H273.032ZM309.109 27V13.8408C309.109 12.9635 309.035 12.1717 308.887 11.4653C308.738 10.7476 308.459 10.138 308.049 9.63672C307.65 9.12402 307.086 8.73096 306.357 8.45752C305.64 8.17269 304.711 8.03027 303.572 8.03027C302.706 8.03027 301.794 8.1499 300.837 8.38916C299.892 8.61702 298.952 8.92464 298.017 9.31201C297.083 9.69938 296.189 10.1494 295.334 10.6621C294.491 11.1748 293.739 11.7103 293.078 12.2686V27H286.738V3.51855H293.078V6.73145C293.876 6.27572 294.725 5.82568 295.625 5.38135C296.525 4.92562 297.482 4.51546 298.496 4.15088C299.51 3.7863 300.587 3.49007 301.726 3.26221C302.865 3.03434 304.067 2.92041 305.332 2.92041C306.916 2.92041 308.328 3.1141 309.57 3.50146C310.823 3.87744 311.883 4.41862 312.749 5.125C313.615 5.81999 314.276 6.66878 314.731 7.67139C315.198 8.6626 315.432 9.77344 315.432 11.0039V27H309.109ZM337.82 2.92041C340.121 2.92041 342.257 3.11979 344.228 3.51855C346.211 3.90592 348.028 4.40723 349.68 5.02246V10.7646C349.031 10.4001 348.296 10.0469 347.475 9.70508C346.667 9.36328 345.784 9.06136 344.827 8.79932C343.87 8.53727 342.844 8.3265 341.75 8.16699C340.657 8.00749 339.506 7.92773 338.298 7.92773C336.794 7.92773 335.484 8.03597 334.368 8.25244C333.251 8.46891 332.294 8.75944 331.496 9.12402C330.699 9.48861 330.044 9.91585 329.531 10.4058C329.018 10.8843 328.614 11.397 328.318 11.9438C328.022 12.4907 327.816 13.049 327.703 13.6187C327.589 14.1883 327.532 14.7409 327.532 15.2764C327.532 15.7435 327.577 16.2505 327.668 16.7974C327.771 17.3442 327.953 17.8911 328.215 18.438C328.489 18.9849 328.865 19.509 329.343 20.0103C329.822 20.5116 330.443 20.9559 331.206 21.3433C331.981 21.7306 332.909 22.0439 333.992 22.2832C335.074 22.5111 336.361 22.625 337.854 22.625C338.606 22.625 339.261 22.6022 339.819 22.5566C340.377 22.5111 340.884 22.4484 341.34 22.3687C341.807 22.2889 342.24 22.1921 342.639 22.0781C343.049 21.9642 343.471 21.8446 343.904 21.7192V18.8823H336.794V13.7383H350.244V25.7354C349.401 26.0202 348.455 26.2822 347.407 26.5215C346.37 26.7493 345.294 26.943 344.177 27.1025C343.072 27.2734 341.961 27.4045 340.845 27.4956C339.728 27.5868 338.674 27.6323 337.683 27.6323C336.145 27.6323 334.669 27.5298 333.257 27.3247C331.844 27.1196 330.522 26.8063 329.292 26.3848C328.073 25.9518 326.956 25.4049 325.942 24.7441C324.94 24.0833 324.079 23.2972 323.362 22.3857C322.655 21.4743 322.103 20.4318 321.704 19.2583C321.317 18.0734 321.123 16.7461 321.123 15.2764C321.123 13.818 321.328 12.4964 321.738 11.3115C322.148 10.1266 322.718 9.07845 323.447 8.16699C324.188 7.25553 325.071 6.4694 326.096 5.80859C327.133 5.14779 328.266 4.60661 329.497 4.18506C330.739 3.75212 332.06 3.43311 333.462 3.22803C334.875 3.02295 336.327 2.92041 337.82 2.92041ZM379.553 27V17.2075H363.42V27H357.08V3.51855H363.42V12.0635H379.553V3.51855H385.893V27H379.553Z" fill="#2E2E2E"/>
<path d="M331.157 48.04V44.876H334.488V48.04H331.157ZM352.075 41.9932C352.075 42.7666 351.99 43.4551 351.82 44.0586C351.65 44.6562 351.41 45.1777 351.1 45.623C350.795 46.0684 350.426 46.4463 349.992 46.7568C349.564 47.0674 349.087 47.3164 348.56 47.5039C348.032 47.6914 347.464 47.8291 346.854 47.917C346.245 47.999 345.609 48.04 344.947 48.04H337.283V35.9639H344.93C345.592 35.9639 346.228 36.0078 346.837 36.0957C347.446 36.1777 348.015 36.3125 348.542 36.5C349.075 36.6875 349.559 36.9365 349.992 37.2471C350.426 37.5518 350.795 37.9297 351.1 38.3809C351.41 38.8262 351.65 39.3477 351.82 39.9453C351.99 40.543 352.075 41.2256 352.075 41.9932ZM348.788 41.9932C348.788 41.4131 348.712 40.9092 348.56 40.4814C348.413 40.0537 348.173 39.7021 347.839 39.4268C347.511 39.1455 347.08 38.9375 346.547 38.8027C346.014 38.6621 345.363 38.5918 344.596 38.5918H340.544V45.4121H344.596C345.363 45.4121 346.014 45.3447 346.547 45.21C347.08 45.0693 347.511 44.8584 347.839 44.5771C348.173 44.29 348.413 43.9326 348.56 43.5049C348.712 43.0771 348.788 42.5732 348.788 41.9932ZM368.52 47.4424C367.529 47.7705 366.539 48.0049 365.549 48.1455C364.564 48.292 363.557 48.3652 362.525 48.3652C361.207 48.3652 360.032 48.2246 359.001 47.9434C357.976 47.6562 357.111 47.2432 356.408 46.7041C355.705 46.165 355.169 45.5059 354.8 44.7266C354.431 43.9473 354.246 43.0654 354.246 42.0811C354.246 41.167 354.431 40.3203 354.8 39.541C355.175 38.7559 355.702 38.0762 356.382 37.502C357.067 36.9219 357.894 36.4707 358.86 36.1484C359.827 35.8203 360.905 35.6562 362.095 35.6562C363.19 35.6562 364.192 35.8057 365.101 36.1045C366.015 36.3975 366.797 36.834 367.447 37.4141C368.103 37.9941 368.61 38.709 368.968 39.5586C369.331 40.4082 369.513 41.3867 369.513 42.4941V43.3027H357.612C357.718 43.6836 357.891 44.0322 358.131 44.3486C358.377 44.665 358.708 44.9346 359.124 45.1572C359.54 45.3799 360.05 45.5527 360.653 45.6758C361.263 45.7988 361.989 45.8604 362.833 45.8604C363.431 45.8604 364.017 45.8252 364.591 45.7549C365.165 45.6787 365.701 45.582 366.199 45.4648C366.697 45.3418 367.145 45.207 367.544 45.0605C367.948 44.9141 368.273 44.7676 368.52 44.6211V47.4424ZM366.27 40.9121C366.24 40.6133 366.149 40.3057 365.997 39.9893C365.851 39.667 365.616 39.377 365.294 39.1191C364.972 38.8613 364.55 38.6504 364.028 38.4863C363.507 38.3164 362.856 38.2314 362.077 38.2314C361.345 38.2314 360.712 38.3223 360.179 38.5039C359.645 38.6855 359.197 38.9111 358.834 39.1807C358.477 39.4502 358.198 39.7402 357.999 40.0508C357.8 40.3613 357.671 40.6484 357.612 40.9121H366.27ZM380.49 48.04H376.693L370.585 35.9639H374.224L378.618 45.0518L383.004 35.9639H386.643L380.49 48.04Z" fill="#2E2E2E"/>
</svg>
