<svg width="72" height="72" viewBox="0 0 72 72" fill="none" xmlns="http://www.w3.org/2000/svg">
<path d="M52.4545 17H20.5455C18.5866 17 17 18.5866 17 20.5455V52.4545C17 54.4134 18.5866 56 20.5455 56H52.4545C54.4134 56 56 54.4134 56 52.4545V20.5455C56 18.5866 54.4134 17 52.4545 17ZM29.3275 48.9091H24.098V32.0824H29.3275V48.9091ZM26.6596 29.6768C24.9737 29.6768 23.6105 28.31 23.6105 26.6277C23.6105 24.9454 24.9755 23.5804 26.6596 23.5804C28.3401 23.5804 29.7069 24.9471 29.7069 26.6277C29.7069 28.31 28.3401 29.6768 26.6596 29.6768ZM48.9162 48.9091H43.6902V40.7262C43.6902 38.7744 43.6547 36.2642 40.9726 36.2642C38.2515 36.2642 37.8331 38.3897 37.8331 40.5844V48.9091H32.6071V32.0824H37.6239V34.3816H37.6948C38.3933 33.0591 40.0986 31.664 42.6425 31.664C47.9376 31.664 48.9162 35.1492 48.9162 39.6803V48.9091V48.9091Z" fill="#2E2E2E"/>
</svg>
