<svg width="72" height="72" viewBox="0 0 72 72" fill="none" xmlns="http://www.w3.org/2000/svg">
<path d="M35.656 17.3506C35.836 16.4226 37.164 16.4226 37.344 17.3506L39.2011 26.9235C39.3247 27.5605 40.0823 27.8363 40.5864 27.4278L48.1625 21.2882C48.8969 20.693 49.9142 21.5466 49.4556 22.3732L44.7248 30.9003C44.41 31.4676 44.8132 32.1659 45.4619 32.177L55.212 32.3436C56.1571 32.3597 56.3877 33.6675 55.5051 34.0059L46.4 37.4972C45.7942 37.7295 45.6542 38.5235 46.144 38.949L53.5059 45.3438C54.2196 45.9637 53.5556 47.1137 52.6619 46.8056L43.4429 43.6275C42.8295 43.416 42.2118 43.9343 42.3136 44.5751L43.8426 54.2059C43.9908 55.1395 42.743 55.5937 42.2564 54.7833L37.2371 46.4228C36.9031 45.8665 36.0969 45.8665 35.7629 46.4228L30.7436 54.7833C30.257 55.5937 29.0092 55.1395 29.1574 54.2059L30.6864 44.5751C30.7882 43.9343 30.1705 43.416 29.5571 43.6275L20.3381 46.8056C19.4444 47.1137 18.7804 45.9637 19.4941 45.3438L26.856 38.949C27.3458 38.5235 27.2058 37.7295 26.6 37.4972L17.4949 34.0059C16.6123 33.6675 16.8429 32.3597 17.788 32.3436L27.5381 32.177C28.1868 32.1659 28.59 31.4676 28.2752 30.9003L23.5444 22.3732C23.0858 21.5466 24.1031 20.693 24.8375 21.2882L32.4136 27.4278C32.9177 27.8363 33.6753 27.5605 33.7989 26.9235L35.656 17.3506Z" fill="#2E2E2E"/>
</svg>
