<svg width="72" height="72" viewBox="0 0 72 72" fill="none" xmlns="http://www.w3.org/2000/svg">
<path d="M56 24.6732C54.5371 25.3048 52.9892 25.7209 51.4053 25.9083C53.0699 24.9399 54.3216 23.4013 54.9259 21.5813C53.3521 22.4956 51.6333 23.1371 49.8429 23.4784C49.089 22.6933 48.1822 22.0688 47.1778 21.6427C46.1734 21.2167 45.0923 20.998 44.0002 21C39.5786 21 36.0003 24.5036 36.0003 28.8226C35.9972 29.4234 36.0665 30.0224 36.2067 30.6068C33.0361 30.4591 29.9314 29.6554 27.0912 28.2473C24.2511 26.8391 21.7381 24.8574 19.7129 22.4289C19.0025 23.619 18.6267 24.9768 18.625 26.3604C18.625 29.0729 20.0493 31.4706 22.2 32.8752C20.9258 32.8452 19.6777 32.5101 18.5616 31.8984V31.9953C18.5616 35.7895 21.3241 38.9461 24.9804 39.6645C24.2928 39.8466 23.5843 39.9389 22.8728 39.939C22.3678 39.9399 21.8641 39.8912 21.3688 39.7937C22.3852 42.9018 25.3436 45.1622 28.8479 45.2268C26.0004 47.4072 22.5044 48.5857 18.9094 48.577C18.2713 48.5761 17.6337 48.5383 17 48.464C20.6572 50.7843 24.9084 52.0117 29.2476 51.9999C43.9831 51.9999 52.0334 40.0763 52.0334 29.7349C52.0334 29.3958 52.0244 29.0568 52.0082 28.7258C53.5707 27.6214 54.9225 26.2491 56 24.6732Z" fill="#2E2E2E"/>
</svg>
