<svg width="116" height="85" viewBox="0 0 116 85" fill="none" xmlns="http://www.w3.org/2000/svg">
<path d="M53.8976 58.4176C53.428 58.765 52.8294 58.9361 52.209 58.8524L35.2798 56.6421L32.3713 73.4696C32.1585 74.7053 31.0106 75.548 29.7681 75.3871L10.618 72.888C9.33922 72.7208 8.433 71.5475 8.59875 70.2681C8.76451 68.9887 9.93613 68.0831 11.2149 68.2503L28.1401 70.463L31.0486 53.6355C31.2614 52.3998 32.4093 51.5571 33.6518 51.718L50.5892 53.9236L53.4977 37.0961C53.7105 35.8604 54.8584 35.0176 56.1009 35.1785L73.0302 37.3889L75.9386 20.5614C76.1514 19.3257 77.2994 18.4829 78.5419 18.6438L95.4752 20.8518L98.3877 4.02196C98.6068 2.74995 99.8197 1.89696 101.091 2.11749C102.363 2.33801 103.216 3.5525 102.997 4.82451L99.7023 23.8608C99.4895 25.0964 98.3416 25.9392 97.0991 25.7783L80.1657 23.5703L77.2573 40.3978C77.0445 41.6335 75.8965 42.4763 74.654 42.3154L57.7248 40.105L54.8163 56.9325C54.7058 57.5527 54.3671 58.0701 53.8976 58.4176Z" fill="black" stroke="black" stroke-width="2" stroke-miterlimit="10" stroke-linecap="round" stroke-linejoin="round"/>
<path d="M52.3722 57.6617C51.9026 58.0092 51.304 58.1802 50.6836 58.0966L33.7544 55.8862L30.8459 72.7137C30.6331 73.9494 29.4852 74.7922 28.2427 74.6313L9.09265 72.1321C7.81383 71.9649 6.90761 70.7916 7.07336 69.5122C7.23912 68.2328 8.41074 67.3273 9.68956 67.4945L26.6147 69.7072L29.5232 52.8797C29.736 51.644 30.8839 50.8012 32.1264 50.9621L49.0638 53.1677L51.9723 36.3402C52.1851 35.1046 53.333 34.2618 54.5755 34.4227L71.5048 36.633L74.4132 19.8055C74.6261 18.5698 75.774 17.7271 77.0165 17.888L93.9498 20.0959L96.8624 3.26609C97.0814 1.99408 98.2943 1.14109 99.5658 1.36162C100.837 1.58214 101.691 2.79663 101.472 4.06864L98.1769 23.1049C97.9641 24.3406 96.8162 25.1833 95.5737 25.0224L78.6404 22.8145L75.7319 39.642C75.5191 40.8776 74.3711 41.7204 73.1287 41.5595L56.1994 39.3492L53.2909 56.1767C53.1805 56.7969 52.8417 57.3143 52.3722 57.6617Z" fill="#3BAFE2" stroke="#2E2E2E" stroke-width="2" stroke-miterlimit="10" stroke-linecap="round" stroke-linejoin="round"/>
</svg>
