<svg xmlns="http://www.w3.org/2000/svg" width="256" height="256" data-name="Layer 1" viewBox="0 0 256 256"><g data-name="Photo Surface"><rect width="240" height="232" x="8" y="12" fill="#300" data-name="Outline no shadow" rx="42"/></g><path fill="#ff9a00" d="M128.79 156H93l-9.24 26.68Q83.6 184 82.09 184H65.29q-1.68 0-1.17-1.65L96.54 86.06A29.5 29.5 0 0097.88 77a.89.89 0 011-1H122.4c.68 0 1.07.28 1.18.82l36.28 105.7c.34 1 .06 1.48-.84 1.48H140.21a1.74 1.74 0 01-1.68-1zM97 138h27.88c-.67-1.47-13.21-41.93-14.11-45.34h-.16zM179.91 96a11.81 11.81 0 01-8.61-3.21 11.55 11.55 0 01-3.3-8.7 11.71 11.71 0 013.39-8.79 12 12 0 018.7-3.3 11.55 11.55 0 018.7 3.3A12.07 12.07 0 01192 84.09a11.55 11.55 0 01-3.3 8.7A12.07 12.07 0 01179.91 96zM170 182.5V105.34a1.18 1.18 0 011.34-1.34h17.32a1.19 1.19 0 011.34 1.34v77.32a1.18 1.18 0 01-1.34 1.34H171.5A1.33 1.33 0 01170 182.5z"/></svg>