<?xml version="1.0"?>
<svg xmlns="http://www.w3.org/2000/svg" viewBox="0 0 64 64">
    <path d="M 29.560547 2 C 28.181547 2 26.985391 2.9344844 26.650391 4.2714844 L 25.765625 7.7910156 C 23.491625 8.3740156 21.312016 9.2774688 19.291016 10.480469 L 16.175781 8.6113281 C 14.993781 7.9023281 13.487719 8.0885 12.511719 9.0625 L 9.0625 12.509766 C 8.0875 13.485766 7.9023281 14.992781 8.6113281 16.175781 L 10.474609 19.287109 C 9.2786094 21.308109 8.3768281 23.488531 7.7988281 25.769531 L 4.2714844 26.650391 C 2.9334844 26.985391 2 28.1835 2 29.5625 L 2 34.439453 C 2 35.818453 2.9344844 37.015609 4.2714844 37.349609 L 7.7910156 38.234375 C 8.3760156 40.510375 9.2774688 42.689984 10.480469 44.708984 L 8.6113281 47.824219 C 7.9023281 49.007219 8.0875 50.514234 9.0625 51.490234 L 12.511719 54.9375 C 13.487719 55.9125 14.991781 56.098672 16.175781 55.388672 L 19.289062 53.525391 C 21.313063 54.722391 23.492531 55.627125 25.769531 56.203125 L 26.650391 59.728516 C 26.985391 61.064516 28.1835 62 29.5625 62 L 34.439453 62 C 35.818453 62 37.014609 61.065516 37.349609 59.728516 L 38.234375 56.208984 C 40.508375 55.625984 42.687984 54.722531 44.708984 53.519531 L 47.824219 55.388672 C 49.007219 56.098672 50.513281 55.9115 51.488281 54.9375 L 54.9375 51.490234 C 55.9125 50.514234 56.097672 49.007219 55.388672 47.824219 L 53.525391 44.712891 C 54.721391 42.691891 55.624125 40.511469 56.203125 38.230469 L 59.728516 37.349609 C 61.065516 37.014609 62 35.8165 62 34.4375 L 62 29.560547 C 62 28.182547 61.066516 26.984391 59.728516 26.650391 L 56.208984 25.765625 C 55.623984 23.489625 54.722531 21.310016 53.519531 19.291016 L 55.388672 16.175781 C 56.097672 14.992781 55.9125 13.485766 54.9375 12.509766 L 51.488281 9.0625 C 50.512281 8.0875 49.009219 7.9023281 47.824219 8.6113281 L 44.710938 10.474609 C 42.686937 9.2776094 40.506469 8.372875 38.230469 7.796875 L 37.349609 4.2714844 C 37.013609 2.9354844 35.8165 2 34.4375 2 L 29.560547 2 z M 29.5625 4 L 34.439453 4 C 34.898453 4 35.297203 4.3128125 35.408203 4.7578125 L 36.289062 8.28125 C 36.466062 8.99025 37.021328 9.5465156 37.736328 9.7285156 C 39.827328 10.264516 41.830406 11.094312 43.691406 12.195312 C 44.326406 12.571312 45.110281 12.573312 45.738281 12.195312 L 48.853516 10.326172 C 49.248516 10.091172 49.749219 10.152563 50.074219 10.476562 L 53.523438 13.923828 C 53.848438 14.248828 53.909828 14.752484 53.673828 15.146484 L 51.804688 18.261719 C 51.428688 18.887719 51.428688 19.671641 51.804688 20.306641 C 52.904688 22.165641 53.734484 24.168719 54.271484 26.261719 C 54.454484 26.975719 55.00875 27.530984 55.71875 27.708984 L 59.242188 28.589844 C 59.687188 28.702844 60 29.1025 60 29.5625 L 60 34.4375 C 60 34.8975 59.688187 35.295203 59.242188 35.408203 L 55.714844 36.289062 C 55.006844 36.468063 54.454484 37.023328 54.271484 37.736328 C 53.733484 39.830328 52.902688 41.834406 51.804688 43.691406 C 51.426687 44.326406 51.427687 45.109328 51.804688 45.736328 L 53.673828 48.853516 C 53.909828 49.247516 53.847438 49.748219 53.523438 50.074219 L 50.074219 53.523438 C 49.748219 53.846438 49.245516 53.908828 48.853516 53.673828 L 45.738281 51.804688 C 45.112281 51.427687 44.328359 51.427687 43.693359 51.804688 C 41.832359 52.905687 39.828281 53.735484 37.738281 54.271484 C 37.023281 54.454484 36.467062 55.006797 36.289062 55.716797 L 35.408203 59.240234 C 35.296203 59.687234 34.8975 60 34.4375 60 L 29.560547 60 C 29.101547 60 28.702797 59.687187 28.591797 59.242188 L 27.710938 55.716797 C 27.532937 55.007797 26.977672 54.453484 26.263672 54.271484 C 24.172672 53.735484 22.167641 52.905688 20.306641 51.804688 C 19.988641 51.616687 19.63525 51.523437 19.28125 51.523438 C 18.92725 51.523438 18.575719 51.616688 18.261719 51.804688 L 15.146484 53.673828 C 14.752484 53.908828 14.249828 53.847438 13.923828 53.523438 L 10.476562 50.076172 C 10.151563 49.751172 10.088219 49.247516 10.324219 48.853516 L 12.193359 45.738281 C 12.570359 45.111281 12.570359 44.326359 12.193359 43.693359 C 11.093359 41.834359 10.263562 39.831281 9.7265625 37.738281 C 9.5435625 37.024281 8.99125 36.469016 8.28125 36.291016 L 4.7558594 35.410156 C 4.3118594 35.297156 4 34.8975 4 34.4375 L 4 29.560547 C 4 29.100547 4.3128125 28.702844 4.7578125 28.589844 L 8.2851562 27.708984 C 8.9931563 27.529984 9.5455156 26.976672 9.7285156 26.263672 C 10.266516 24.169672 11.096313 22.164641 12.195312 20.306641 C 12.571312 19.670641 12.571312 18.887719 12.195312 18.261719 L 10.326172 15.146484 C 10.090172 14.752484 10.152563 14.249828 10.476562 13.923828 L 13.925781 10.476562 C 14.249781 10.152563 14.752484 10.089172 15.146484 10.326172 L 18.261719 12.195312 C 18.887719 12.571312 19.671641 12.573312 20.306641 12.195312 C 22.167641 11.094313 24.171719 10.264516 26.261719 9.7285156 C 26.977719 9.5455156 27.532984 8.99025 27.708984 8.28125 L 28.589844 4.7578125 C 28.702844 4.3118125 29.1025 4 29.5625 4 z M 32 11 C 31.448 11 31 11.447 31 12 L 31 14 C 31 14.553 31.448 15 32 15 C 32.552 15 33 14.553 33 14 L 33 12 C 33 11.447 32.552 11 32 11 z M 26.960938 11.689453 C 26.832281 11.671781 26.697703 11.680047 26.564453 11.716797 C 26.030453 11.859797 25.714422 12.407406 25.857422 12.941406 L 26.376953 14.873047 C 26.496953 15.320047 26.899797 15.613281 27.341797 15.613281 C 27.426797 15.613281 27.513609 15.603078 27.599609 15.580078 C 28.133609 15.437078 28.449641 14.889469 28.306641 14.355469 L 27.789062 12.423828 C 27.681812 12.023328 27.346906 11.742469 26.960938 11.689453 z M 37.039062 11.689453 C 36.652953 11.742891 36.318188 12.021375 36.210938 12.421875 L 35.691406 14.353516 C 35.549406 14.887516 35.866391 15.436125 36.400391 15.578125 C 36.487391 15.601125 36.573203 15.613281 36.658203 15.613281 C 37.099203 15.613281 37.504047 15.318094 37.623047 14.871094 L 38.142578 12.939453 C 38.285578 12.406453 37.969547 11.857844 37.435547 11.714844 C 37.302047 11.678844 37.167766 11.671641 37.039062 11.689453 z M 21.875 13.6875 C 21.746141 13.703594 21.61925 13.745203 21.5 13.814453 C 21.021 14.090453 20.858766 14.701687 21.134766 15.179688 L 22.134766 16.910156 C 22.319766 17.231156 22.655953 17.410156 23.001953 17.410156 C 23.170953 17.410156 23.343 17.368344 23.5 17.277344 C 23.979 17.001344 24.141234 16.388156 23.865234 15.910156 L 22.865234 14.179688 C 22.658234 13.820438 22.261578 13.639219 21.875 13.6875 z M 42.123047 13.6875 C 41.736187 13.639359 41.341766 13.820438 41.134766 14.179688 L 40.134766 15.910156 C 39.858766 16.389156 40.021 17.001344 40.5 17.277344 C 40.657 17.368344 40.828047 17.410156 40.998047 17.410156 C 41.344047 17.410156 41.680234 17.231156 41.865234 16.910156 L 42.865234 15.179688 C 43.141234 14.700688 42.979 14.090453 42.5 13.814453 C 42.38025 13.745453 42.252 13.703547 42.123047 13.6875 z M 21.388672 21.970703 C 20.947672 21.970703 20.558641 22.260594 20.431641 22.683594 L 15.03125 40.683594 C 14.87225 41.211594 15.172172 41.768734 15.701172 41.927734 C 16.229172 42.083734 16.789266 41.786813 16.947266 41.257812 L 18.533203 35.970703 L 24.244141 35.970703 L 25.830078 41.257812 C 25.959078 41.690812 26.356109 41.970703 26.787109 41.970703 C 26.882109 41.970703 26.980172 41.955734 27.076172 41.927734 C 27.605172 41.768734 27.905094 41.211594 27.746094 40.683594 L 22.347656 22.683594 C 22.220656 22.260594 21.829672 21.970703 21.388672 21.970703 z M 31 22 C 30.448 22 30 22.447 30 23 L 30 41 C 30 41.553 30.448 42 31 42 C 31.552 42 32 41.553 32 41 L 32 34 L 36 34 C 38.206 34 40 32.206 40 30 L 40 26 C 40 23.794 38.206 22 36 22 L 31 22 z M 43 22 C 42.448 22 42 22.447 42 23 C 42 23.553 42.448 24 43 24 L 44 24 L 44 40 L 43 40 C 42.448 40 42 40.447 42 41 C 42 41.553 42.448 42 43 42 L 47 42 C 47.552 42 48 41.553 48 41 C 48 40.447 47.552 40 47 40 L 46 40 L 46 24 L 47 24 C 47.552 24 48 23.553 48 23 C 48 22.447 47.552 22 47 22 L 43 22 z M 32 24 L 36 24 C 37.103 24 38 24.897 38 26 L 38 30 C 38 31.103 37.103 32 36 32 L 32 32 L 32 24 z M 21.388672 26.449219 L 23.644531 33.970703 L 19.132812 33.970703 L 21.388672 26.449219 z M 23.123047 46.595703 C 22.736328 46.547562 22.341766 46.730594 22.134766 47.089844 L 21.134766 48.820312 C 20.858766 49.299312 21.021 49.909547 21.5 50.185547 C 21.657 50.276547 21.829047 50.320312 21.998047 50.320312 C 22.344047 50.320312 22.680234 50.141312 22.865234 49.820312 L 23.865234 48.089844 C 24.141234 47.610844 23.979 46.998656 23.5 46.722656 C 23.3805 46.653656 23.251953 46.61175 23.123047 46.595703 z M 40.876953 46.595703 C 40.748047 46.611797 40.6195 46.653406 40.5 46.722656 C 40.021 46.998656 39.858766 47.611844 40.134766 48.089844 L 41.134766 49.820312 C 41.319766 50.141312 41.655953 50.320312 42.001953 50.320312 C 42.170953 50.320312 42.343 50.276547 42.5 50.185547 C 42.979 49.909547 43.141234 49.298313 42.865234 48.820312 L 41.865234 47.089844 C 41.658234 46.730594 41.263672 46.547422 40.876953 46.595703 z M 36.796875 48.394531 C 36.668172 48.376812 36.533891 48.385375 36.400391 48.421875 C 35.866391 48.564875 35.550359 49.112484 35.693359 49.646484 L 36.210938 51.578125 C 36.330937 52.025125 36.733781 52.318359 37.175781 52.318359 C 37.260781 52.318359 37.349547 52.308156 37.435547 52.285156 C 37.969547 52.142156 38.285578 51.594547 38.142578 51.060547 L 37.625 49.128906 C 37.51775 48.728406 37.182984 48.447688 36.796875 48.394531 z M 27.203125 48.396484 C 26.816875 48.450156 26.48225 48.729156 26.375 49.128906 L 25.857422 51.060547 C 25.714422 51.593547 26.030453 52.142156 26.564453 52.285156 C 26.651453 52.308156 26.737266 52.318359 26.822266 52.318359 C 27.263266 52.318359 27.668109 52.025125 27.787109 51.578125 L 28.306641 49.646484 C 28.450641 49.112484 28.133609 48.563875 27.599609 48.421875 C 27.465859 48.385875 27.331875 48.378594 27.203125 48.396484 z M 32 49 C 31.448 49 31 49.447 31 50 L 31 52 C 31 52.553 31.448 53 32 53 C 32.552 53 33 52.553 33 52 L 33 50 C 33 49.447 32.552 49 32 49 z"/>
</svg>
